<?xml version="1.0" encoding="UTF-8" standalone="no"?>
<svg
   viewBox="0 0 120 120"
   version="1.1"
   id="svg834"
   xmlns="http://www.w3.org/2000/svg"
   xmlns:svg="http://www.w3.org/2000/svg">
  <defs
     id="defs838">
    <clipPath
       clipPathUnits="userSpaceOnUse"
       id="clipPath451">
      <g
         id="g458"
         style="display:none">
        <rect
           style="fill:#000000;fill-opacity:1"
           id="rect451"
           width="74.036179"
           height="5.880888"
           x="22.981911"
           y="90.840599"
           rx="1.9953014"
           ry="2.9404433"
           d="m 24.977212,90.840599 h 70.045576 c 1.105397,0 1.995301,1.311438 1.995301,2.940443 v 2e-6 c 0,1.629005 -0.889904,2.940443 -1.995301,2.940443 H 24.977212 c -1.105397,0 -1.995301,-1.311438 -1.995301,-2.940443 v -2e-6 c 0,-1.629005 0.889904,-2.940443 1.995301,-2.940443 z" />
        <rect
           style="fill:#000000;fill-opacity:1"
           id="rect452"
           width="74.036179"
           height="5.880888"
           x="22.981911"
           y="81.380302"
           rx="1.9953014"
           ry="2.9404433"
           d="m 24.977212,81.380302 h 70.045576 c 1.105397,0 1.995301,1.311438 1.995301,2.940444 v 10e-7 c 0,1.629006 -0.889904,2.940443 -1.995301,2.940443 H 24.977212 c -1.105397,0 -1.995301,-1.311437 -1.995301,-2.940443 v -10e-7 c 0,-1.629006 0.889904,-2.940444 1.995301,-2.940444 z" />
        <rect
           style="fill:#000000;fill-opacity:1"
           id="rect453"
           width="74.036179"
           height="5.880888"
           x="22.981911"
           y="71.920006"
           rx="1.9953014"
           ry="2.9404433"
           d="m 24.977212,71.920006 h 70.045576 c 1.105397,0 1.995301,1.311438 1.995301,2.940443 v 2e-6 c 0,1.629005 -0.889904,2.940443 -1.995301,2.940443 H 24.977212 c -1.105397,0 -1.995301,-1.311438 -1.995301,-2.940443 v -2e-6 c 0,-1.629005 0.889904,-2.940443 1.995301,-2.940443 z" />
        <rect
           style="fill:#000000;fill-opacity:1"
           id="rect454"
           width="74.036179"
           height="5.880888"
           x="22.981911"
           y="62.459709"
           rx="1.9953014"
           ry="2.9404433"
           d="m 24.977212,62.459709 h 70.045576 c 1.105397,0 1.995301,1.311438 1.995301,2.940443 v 2e-6 c 0,1.629005 -0.889904,2.940443 -1.995301,2.940443 H 24.977212 c -1.105397,0 -1.995301,-1.311438 -1.995301,-2.940443 v -2e-6 c 0,-1.629005 0.889904,-2.940443 1.995301,-2.940443 z" />
        <rect
           style="fill:#000000;fill-opacity:1"
           id="rect455"
           width="74.036179"
           height="5.880888"
           x="22.981911"
           y="52.999413"
           rx="1.9953014"
           ry="2.9404433"
           d="m 24.977212,52.999413 h 70.045576 c 1.105397,0 1.995301,1.311437 1.995301,2.940443 v 1e-6 c 0,1.629006 -0.889904,2.940444 -1.995301,2.940444 H 24.977212 c -1.105397,0 -1.995301,-1.311438 -1.995301,-2.940444 v -1e-6 c 0,-1.629006 0.889904,-2.940443 1.995301,-2.940443 z" />
        <rect
           style="fill:#000000;fill-opacity:1"
           id="rect456"
           width="74.036179"
           height="5.880888"
           x="22.981911"
           y="43.53912"
           rx="1.9953014"
           ry="2.9404433"
           d="m 24.977212,43.53912 h 70.045576 c 1.105397,0 1.995301,1.311437 1.995301,2.940443 v 1e-6 c 0,1.629006 -0.889904,2.940444 -1.995301,2.940444 H 24.977212 c -1.105397,0 -1.995301,-1.311438 -1.995301,-2.940444 v -1e-6 c 0,-1.629006 0.889904,-2.940443 1.995301,-2.940443 z" />
        <rect
           style="fill:#000000;fill-opacity:1"
           id="rect457"
           width="74.036179"
           height="5.880888"
           x="22.981911"
           y="34.078823"
           rx="1.9953014"
           ry="2.9404433"
           d="m 24.977212,34.078823 h 70.045576 c 1.105397,0 1.995301,1.311438 1.995301,2.940443 v 2e-6 c 0,1.629005 -0.889904,2.940443 -1.995301,2.940443 H 24.977212 c -1.105397,0 -1.995301,-1.311438 -1.995301,-2.940443 v -2e-6 c 0,-1.629005 0.889904,-2.940443 1.995301,-2.940443 z" />
        <rect
           style="fill:#000000;fill-opacity:1"
           id="rect458"
           width="74.036179"
           height="5.880888"
           x="22.981911"
           y="24.618526"
           rx="1.9953014"
           ry="2.9404433"
           d="m 24.977212,24.618526 h 70.045576 c 1.105397,0 1.995301,1.311438 1.995301,2.940444 v 1e-6 c 0,1.629006 -0.889904,2.940443 -1.995301,2.940443 H 24.977212 c -1.105397,0 -1.995301,-1.311437 -1.995301,-2.940443 v -1e-6 c 0,-1.629006 0.889904,-2.940444 1.995301,-2.940444 z" />
      </g>
      <path
         id="lpe_path-effect458"
         class="powerclip"
         d="m 10.15823,10.15823 h 99.68354 v 99.68354 H 10.15823 Z m 14.818982,80.682369 c -1.105397,0 -1.995301,1.311438 -1.995301,2.940443 v 2e-6 c 0,1.629005 0.889904,2.940443 1.995301,2.940443 h 70.045576 c 1.105397,0 1.995301,-1.311438 1.995301,-2.940443 v -2e-6 c 0,-1.629005 -0.889904,-2.940443 -1.995301,-2.940443 z m 0,-9.460297 c -1.105397,0 -1.995301,1.311438 -1.995301,2.940444 v 10e-7 c 0,1.629006 0.889904,2.940443 1.995301,2.940443 h 70.045576 c 1.105397,0 1.995301,-1.311437 1.995301,-2.940443 v -10e-7 c 0,-1.629006 -0.889904,-2.940444 -1.995301,-2.940444 z m 0,-9.460296 c -1.105397,0 -1.995301,1.311438 -1.995301,2.940443 v 2e-6 c 0,1.629005 0.889904,2.940443 1.995301,2.940443 h 70.045576 c 1.105397,0 1.995301,-1.311438 1.995301,-2.940443 v -2e-6 c 0,-1.629005 -0.889904,-2.940443 -1.995301,-2.940443 z m 0,-9.460297 c -1.105397,0 -1.995301,1.311438 -1.995301,2.940443 v 2e-6 c 0,1.629005 0.889904,2.940443 1.995301,2.940443 h 70.045576 c 1.105397,0 1.995301,-1.311438 1.995301,-2.940443 v -2e-6 c 0,-1.629005 -0.889904,-2.940443 -1.995301,-2.940443 z m 0,-9.460296 c -1.105397,0 -1.995301,1.311437 -1.995301,2.940443 v 1e-6 c 0,1.629006 0.889904,2.940444 1.995301,2.940444 h 70.045576 c 1.105397,0 1.995301,-1.311438 1.995301,-2.940444 v -1e-6 c 0,-1.629006 -0.889904,-2.940443 -1.995301,-2.940443 z m 0,-9.460293 c -1.105397,0 -1.995301,1.311437 -1.995301,2.940443 v 1e-6 c 0,1.629006 0.889904,2.940444 1.995301,2.940444 h 70.045576 c 1.105397,0 1.995301,-1.311438 1.995301,-2.940444 v -1e-6 c 0,-1.629006 -0.889904,-2.940443 -1.995301,-2.940443 z m 0,-9.460297 c -1.105397,0 -1.995301,1.311438 -1.995301,2.940443 v 2e-6 c 0,1.629005 0.889904,2.940443 1.995301,2.940443 h 70.045576 c 1.105397,0 1.995301,-1.311438 1.995301,-2.940443 v -2e-6 c 0,-1.629005 -0.889904,-2.940443 -1.995301,-2.940443 z m 0,-9.460297 c -1.105397,0 -1.995301,1.311438 -1.995301,2.940444 v 1e-6 c 0,1.629006 0.889904,2.940443 1.995301,2.940443 h 70.045576 c 1.105397,0 1.995301,-1.311437 1.995301,-2.940443 v -1e-6 c 0,-1.629006 -0.889904,-2.940444 -1.995301,-2.940444 z" />
    </clipPath>
  </defs>
  <path
     style="display:inline;fill:#ffffff;fill-opacity:1;stroke-width:0.995338"
     id="rect1"
     width="89.68354"
     height="89.68354"
     x="15.15823"
     y="15.15823"
     ry="10.693069"
     clip-path="url(#clipPath451)"
     d="m 25.851299,15.15823 h 68.297402 c 5.923959,0 10.693069,4.769109 10.693069,10.693069 v 68.297402 c 0,5.923959 -4.76911,10.693069 -10.693069,10.693069 H 25.851299 c -5.92396,0 -10.693069,-4.76911 -10.693069,-10.693069 V 25.851299 c 0,-5.92396 4.769109,-10.693069 10.693069,-10.693069 z" />
</svg>
